<?xml version="1.0"?>
<svg version="1.1" xmlns="http://www.w3.org/2000/svg" width="400" height="200" style="border: dashed 2px #aaa"><path fill="#1f7ec2" d="M16.05419921875,106.64892578125q-0.04150390625-0.55615234375,0.06640625-1.02099609375t0.431640625-0.75537109375t1.03759765625-0.29052734375q0.166015625,0,0.40673828125,0.04150390625t0.47314453125,0.10791015625t0.39013671875,0.19921875t0.15771484375,0.365234375l0,1.8759765625q0.6474609375-0.7470703125,1.4111328125-1.07080078125t1.7431640625-0.32373046875q0.7470703125,0,1.4775390625,0.34033203125t1.3779296875,0.90478515625t1.12060546875,1.2451171875t0.68896484375,1.361328125q0.1328125-0.6142578125,0.298828125-1.50244140625t0.48974609375-1.70166015625t0.85498046875-1.39453125t1.4111328125-0.5810546875q0.9462890625,0,1.59375,0.6806640625t1.05419921875,1.76806640625t0.6142578125,2.43212890625t0.30712890625,2.65625t0.099609375,2.44873046875l0,1.78466796875q0,0.19921875-0.1494140625,0.32373046875t-0.37353515625,0.19091796875t-0.46484375,0.0830078125t-0.37353515625,0.0166015625q-0.5146484375,0-0.93798828125-0.15771484375t-0.42333984375-0.80517578125l0-1.494140625t-0.033203125-1.93408203125t-0.1162109375-2.0751953125t-0.2158203125-1.88427734375t-0.34033203125-1.361328125t-0.50634765625-0.53125q-0.4150390625,0-0.59765625,0.46484375t-0.30712890625,1.1787109375t-0.19091796875,1.5107421875t-0.1826171875,1.5107421875t-0.37353515625,1.17041015625t-0.70556640625,0.45654296875q-0.4814453125,0-0.8466796875-0.45654296875t-0.72216796875-1.13720703125t-0.7138671875-1.4609375t-0.78857421875-1.4609375q-0.431640625-0.697265625-0.9296875-1.12890625q-0.4482421875-0.4150390625-1.0126953125-0.3984375l-0.0830078125,0q-0.7470703125,0.033203125-1.17041015625,0.53955078125t-0.6474609375,1.23681640625t-0.27392578125,1.56884765625t-0.0498046875,1.46923828125q0,0.59765625,0.099609375,1.39453125q0.06640625,0.53125,0.06640625,1.0126953125q0,0.2490234375-0.0166015625,0.4814453125q-0.0498046875,0.697265625-0.37353515625,1.17041015625t-1.20361328125,0.47314453125q-0.33203125,0-0.830078125-0.06640625t-0.6640625-0.4482421875q-0.3818359375-0.6806640625-0.5810546875-1.71826171875t-0.298828125-2.1416015625t-0.1162109375-2.19140625t-0.0166015625-1.86767578125q0-0.5478515625-0.04150390625-1.10400390625z M36.991591796875,111.48828125q0-1.162109375,0.25732421875-2.7392578125t0.87158203125-2.98828125t1.61865234375-2.39892578125t2.53173828125-0.98779296875q1.427734375,0,2.1416015625,0.82177734375t0.7138671875,2.21630859375q0,0.9130859375-0.34033203125,2.00048828125t-0.97119140625,2.05859375t-1.494140625,1.61865234375t-1.92578125,0.6474609375l-0.431640625-0.033203125q0,0.4482421875,0.1328125,1.20361328125t0.39013671875,1.50244140625t0.6640625,1.3115234375t0.98779296875,0.564453125q0.8466796875,0,1.626953125-0.6806640625t1.4775390625-1.5107421875t1.294921875-1.5107421875t1.095703125-0.6806640625q0.265625,0,0.5478515625,0.0830078125t0.3154296875,0.46484375q0,0.232421875-0.12451171875,0.3818359375t-0.22412109375,0.33203125q-0.5146484375,0.8798828125-1.12060546875,1.6767578125t-1.36962890625,1.4443359375t-1.66845703125,1.02099609375t-2.00048828125,0.37353515625q-1.427734375,0-2.3740234375-0.50634765625t-1.52734375-1.361328125t-0.83837890625-1.9755859375t-0.25732421875-2.34912109375z M39.963271484375,110.2265625l0.46484375,0.4150390625q0.33203125,0.298828125,0.6640625,0.1328125t0.59765625-0.60595703125t0.48974609375-1.08740234375t0.3984375-1.328125t0.25732421875-1.328125t0.0830078125-1.0791015625l0-0.564453125t-0.0498046875-0.59765625t-0.17431640625-0.47314453125t-0.39013671875-0.24072265625q-0.0830078125-0.0166015625-0.1494140625-0.0166015625q-0.564453125,0-0.962890625,0.7138671875q-0.431640625,0.796875-0.697265625,1.93408203125t-0.3818359375,2.33251953125t-0.1494140625,1.79296875z M50.9065234375,106.64892578125q-0.04150390625-0.55615234375,0.06640625-1.02099609375t0.431640625-0.75537109375t1.03759765625-0.29052734375q0.166015625,0,0.40673828125,0.04150390625t0.47314453125,0.10791015625t0.39013671875,0.19921875t0.15771484375,0.365234375l0,1.8759765625q0.6474609375-0.7470703125,1.4111328125-1.07080078125t1.7431640625-0.32373046875q0.7470703125,0,1.4775390625,0.34033203125t1.3779296875,0.90478515625t1.12060546875,1.2451171875t0.68896484375,1.361328125q0.1328125-0.6142578125,0.298828125-1.50244140625t0.48974609375-1.70166015625t0.85498046875-1.39453125t1.4111328125-0.5810546875q0.9462890625,0,1.59375,0.6806640625t1.05419921875,1.76806640625t0.6142578125,2.43212890625t0.30712890625,2.65625t0.099609375,2.44873046875l0,1.78466796875q0,0.19921875-0.1494140625,0.32373046875t-0.37353515625,0.19091796875t-0.46484375,0.0830078125t-0.37353515625,0.0166015625q-0.5146484375,0-0.93798828125-0.15771484375t-0.42333984375-0.80517578125l0-1.494140625t-0.033203125-1.93408203125t-0.1162109375-2.0751953125t-0.2158203125-1.88427734375t-0.34033203125-1.361328125t-0.50634765625-0.53125q-0.4150390625,0-0.59765625,0.46484375t-0.30712890625,1.1787109375t-0.19091796875,1.5107421875t-0.1826171875,1.5107421875t-0.37353515625,1.17041015625t-0.70556640625,0.45654296875q-0.4814453125,0-0.8466796875-0.45654296875t-0.72216796875-1.13720703125t-0.7138671875-1.4609375t-0.78857421875-1.4609375q-0.431640625-0.697265625-0.9296875-1.12890625q-0.4482421875-0.4150390625-1.0126953125-0.3984375l-0.0830078125,0q-0.7470703125,0.033203125-1.17041015625,0.53955078125t-0.6474609375,1.23681640625t-0.27392578125,1.56884765625t-0.0498046875,1.46923828125q0,0.59765625,0.099609375,1.39453125q0.06640625,0.53125,0.06640625,1.0126953125q0,0.2490234375-0.0166015625,0.4814453125q-0.0498046875,0.697265625-0.37353515625,1.17041015625t-1.20361328125,0.47314453125q-0.33203125,0-0.830078125-0.06640625t-0.6640625-0.4482421875q-0.3818359375-0.6806640625-0.5810546875-1.71826171875t-0.298828125-2.1416015625t-0.1162109375-2.19140625t-0.0166015625-1.86767578125q0-0.5478515625-0.04150390625-1.10400390625z M71.511884765625,111.123046875q0-0.9462890625,0.24072265625-1.95068359375t0.763671875-1.8095703125t1.31982421875-1.3115234375t1.92578125-0.50634765625q0.8466796875,0,1.78466796875,0.29052734375t1.71826171875,0.830078125t1.27001953125,1.31982421875t0.48974609375,1.7431640625q0,1.162109375-0.42333984375,2.2080078125t-1.18701171875,1.86767578125t-1.78466796875,1.294921875t-2.21630859375,0.47314453125q-0.9794921875,0-1.7099609375-0.35693359375t-1.22021484375-0.95458984375t-0.73046875-1.4111328125t-0.24072265625-1.7265625z M73.952314453125,111.08984375q0,0.298828125,0.09130859375,0.8798828125t0.27392578125,1.13720703125t0.47314453125,0.962890625t0.70556640625,0.37353515625q0.8798828125-0.099609375,1.45263671875-0.57275390625t0.9296875-1.15380859375t0.498046875-1.4775390625t0.14111328125-1.5107421875q0-0.9130859375-0.35693359375-1.52734375t-1.17041015625-0.99609375q0,0.033203125,0.033203125,0.033203125t0.033203125-0.033203125l-0.4150390625-0.099609375q-0.166015625-0.06640625-0.40673828125-0.1494140625t-0.47314453125-0.365234375q-0.6474609375,0.232421875-1.00439453125,0.59765625t-0.53955078125,0.88818359375t-0.22412109375,1.25341796875t-0.04150390625,1.759765625z M84.090390625,110.4091796875q0-1.52734375,0.35693359375-2.99658203125t0.60595703125-2.93017578125q0.06640625-0.3818359375,0.52294921875-0.47314453125t0.77197265625-0.09130859375q0.5478515625,0,0.8798828125,0.166015625q0.1328125,0.06640625,0.2490234375,0.1494140625t0.1162109375,0.2158203125q0,1.427734375-0.34033203125,2.7890625t-0.34033203125,2.888671875q0,0.5146484375,0.07470703125,0.97119140625t0.14111328125,0.90478515625l0.099609375,0.4814453125q0,0.1328125,0.0166015625,0.232421875t0.0498046875,0.232421875q0,0.298828125-0.42333984375,0.40673828125t-0.73876953125,0.10791015625q-0.4814453125,0-0.88818359375-0.19091796875t-0.63916015625-0.65576171875l-0.232421875-0.4814453125q-0.19921875-0.3818359375-0.19921875-0.85498046875t-0.0830078125-0.87158203125z M85.152890625,100.4150390625l0-0.3154296875q0-0.7802734375,0.39013671875-1.39453125t1.17041015625-0.6142578125q0.099609375,0,0.19091796875,0.0166015625t0.19091796875,0.0166015625q0.19921875,0.033203125,0.52294921875,0.15771484375t0.32373046875,0.39013671875l0,0.033203125q-0.06640625,0.1328125-0.0830078125,0.27392578125t-0.0830078125,0.24072265625l0.033203125-0.033203125q-0.19921875,0.5146484375-0.32373046875,0.830078125t-0.27392578125,0.50634765625t-0.37353515625,0.27392578125t-0.63916015625,0.0830078125q-0.06640625,0-0.232421875-0.0166015625t-0.35693359375-0.06640625t-0.32373046875-0.1328125t-0.1328125-0.2490234375z M91.339794921875,106.1591796875q0-0.6806640625,0.24072265625-1.1455078125t1.02099609375-0.46484375q0.298828125,0,0.7470703125,0.09130859375t0.5146484375,0.45654296875q0.166015625,0.9794921875,0.1826171875,2.125t0.1162109375,2.158203125q0.3818359375-0.7470703125,0.9794921875-1.6103515625t1.361328125-1.59375t1.66015625-1.2119140625t1.826171875-0.4814453125q0.06640625,0,0.2490234375,0.0498046875t0.34033203125,0.14111328125t0.19091796875,0.20751953125t-0.1826171875,0.2158203125q-0.06640625,0.19921875-0.2822265625,0.24072265625t-0.3818359375,0.04150390625q-0.099609375,0-0.3154296875-0.0830078125q-1.228515625,0.6474609375-2.091796875,1.759765625t-1.4111328125,2.46533203125t-0.796875,2.85546875t-0.2490234375,2.93017578125q0,0.7138671875-0.32373046875,0.86328125t-1.03759765625,0.1494140625q-0.3818359375,0-0.80517578125-0.0830078125t-0.58935546875-0.53125q-0.298828125-0.9462890625-0.48974609375-2.1748046875t-0.29052734375-2.53173828125t-0.14111328125-2.56494140625t-0.04150390625-2.2744140625z M103.81869140625,108.83203125q0-0.33203125,0.90478515625-0.498046875t2.125-0.24072265625t2.53173828125-0.05810546875t2.125,0.0166015625q0.4150390625,0,0.97119140625,0.15771484375t0.55615234375,0.52294921875q0,0.298828125-0.265625,0.43994140625t-0.62255859375,0.20751953125t-0.697265625,0.06640625l-0.43994140625,0q-1.162109375,0-2.18310546875-0.0498046875t-2.11669921875-0.0498046875q-0.33203125,0-0.67236328125,0.033203125t-0.63916015625,0.033203125l-0.47314453125,0t-0.5146484375-0.0498046875t-0.4150390625-0.166015625t-0.17431640625-0.365234375z M117.11106445312,110.4091796875q0-1.52734375,0.35693359375-2.99658203125t0.60595703125-2.93017578125q0.06640625-0.3818359375,0.52294921875-0.47314453125t0.77197265625-0.09130859375q0.5478515625,0,0.8798828125,0.166015625q0.1328125,0.06640625,0.2490234375,0.1494140625t0.1162109375,0.2158203125q0,1.427734375-0.34033203125,2.7890625t-0.34033203125,2.888671875q0,0.5146484375,0.07470703125,0.97119140625t0.14111328125,0.90478515625l0.099609375,0.4814453125q0,0.1328125,0.0166015625,0.232421875t0.0498046875,0.232421875q0,0.298828125-0.42333984375,0.40673828125t-0.73876953125,0.10791015625q-0.4814453125,0-0.88818359375-0.19091796875t-0.63916015625-0.65576171875l-0.232421875-0.4814453125q-0.19921875-0.3818359375-0.19921875-0.85498046875t-0.0830078125-0.87158203125z M118.17356445312,100.4150390625l0-0.3154296875q0-0.7802734375,0.39013671875-1.39453125t1.17041015625-0.6142578125q0.099609375,0,0.19091796875,0.0166015625t0.19091796875,0.0166015625q0.19921875,0.033203125,0.52294921875,0.15771484375t0.32373046875,0.39013671875l0,0.033203125q-0.06640625,0.1328125-0.0830078125,0.27392578125t-0.0830078125,0.24072265625l0.033203125-0.033203125q-0.19921875,0.5146484375-0.32373046875,0.830078125t-0.27392578125,0.50634765625t-0.37353515625,0.27392578125t-0.63916015625,0.0830078125q-0.06640625,0-0.232421875-0.0166015625t-0.35693359375-0.06640625t-0.32373046875-0.1328125t-0.1328125-0.2490234375z M124.36046875,103.8681640625q0-0.166015625,0.25732421875-0.2822265625t0.6142578125-0.166015625t0.6806640625-0.0830078125t0.48974609375-0.033203125q0.06640625-0.4482421875,0.19091796875-1.2119140625t0.30712890625-1.63525390625t0.45654296875-1.75146484375t0.6640625-1.59375t0.92138671875-1.17041015625t1.2451171875-0.45654296875l-0.033203125,0q0.232421875-0.033203125,0.45654296875-0.0498046875t0.45654296875-0.0166015625q0.5478515625,0,1.18701171875,0.2158203125t1.18701171875,0.60595703125t0.92138671875,0.93798828125t0.37353515625,1.162109375q0,0.4814453125-0.24072265625,1.03759765625t-0.83837890625,0.55615234375q-0.19921875,0-0.40673828125-0.099609375t-0.39013671875-0.2158203125q0.06640625-0.3818359375,0.06640625-0.763671875q0-0.19921875-0.0166015625-0.3818359375q-0.0498046875-0.5810546875-0.2490234375-1.02099609375t-0.57275390625-0.697265625t-0.88818359375-0.19091796875q-0.6806640625,0.099609375-1.02099609375,0.830078125t-0.47314453125,1.73486328125t-0.166015625,2.0419921875t-0.1328125,1.68505859375q0.7802734375,0.06640625,1.31982421875,0.06640625l1.35302734375,0q0.1328125,0,0.45654296875,0.0166015625t0.630859375,0.06640625t0.5478515625,0.17431640625t0.24072265625,0.32373046875q0,0.166015625-0.1328125,0.29052734375t-0.32373046875,0.17431640625t-0.3984375,0.06640625t-0.34033203125,0.0166015625q-0.5810546875,0-0.98779296875-0.0498046875t-0.7802734375-0.09130859375t-0.7802734375-0.04150390625t-0.95458984375,0.1162109375q-0.166015625,1.8427734375-0.265625,3.65234375t-0.099609375,3.65234375q0,2.888671875,0.1826171875,5.6611328125t0.6640625,5.6279296875q0.06640625,0.265625,0.1162109375,0.60595703125t0.0498046875,0.65576171875q0,0.298828125-0.1826171875,0.48974609375t-0.45654296875,0.27392578125t-0.564453125,0.1162109375t-0.52294921875,0.033203125q-0.9462890625,0-1.328125-0.29052734375t-0.5478515625-1.17041015625q-0.4150390625-2.3408203125-0.53125-4.72314453125t-0.1162109375-4.80615234375q0-2.3740234375,0.17431640625-4.73974609375t0.43994140625-4.70654296875q-0.1328125,0-0.45654296875,0.0166015625t-0.6474609375,0t-0.564453125-0.1162109375t-0.24072265625-0.3486328125z M136.60694335937,107.10546875q0-0.4814453125,0.27392578125-0.630859375t0.68896484375-0.1494140625q0.6806640625,0,1.03759765625,0.25732421875t0.35693359375,0.90478515625q0,0.7802734375,0.1162109375,1.95068359375t0.34033203125,2.2744140625t0.53125,1.90087890625t0.63916015625,0.796875q0.6142578125,0,1.08740234375-0.9462890625t0.830078125-2.32421875t0.6142578125-2.96337890625t0.35693359375-2.83056640625q0.06640625-0.6806640625,0.32373046875-0.98779296875t0.93798828125-0.30712890625q0.7802734375,0,1.13720703125,0.6474609375t0.45654296875,1.59375q0.0830078125,0.8134765625,0.0830078125,1.693359375l0,0.2822265625l0,0.6640625q0,0.630859375,0.0166015625,1.12890625l0.4814453125,10.1767578125l0.06640625,1.693359375q0.033203125,0.232421875,0.0498046875,0.43994140625t0.0166015625,0.43994140625q0,0.9462890625-0.40673828125,1.22021484375t-1.31982421875,0.27392578125q-0.19921875,0-0.50634765625-0.033203125t-0.59765625-0.1328125t-0.498046875-0.27392578125t-0.20751953125-0.43994140625l0.06640625-0.166015625q0.0830078125-0.99609375,0.0830078125-2.091796875l0-0.3486328125q-0.0166015625-1.294921875-0.0830078125-2.623046875t-0.1494140625-2.65625t-0.0830078125-2.556640625q-0.232421875,0.5146484375-0.53955078125,1.0625t-0.7138671875,0.98779296875t-0.92138671875,0.73046875t-1.162109375,0.29052734375q-0.9462890625,0-1.560546875-0.498046875t-0.95458984375-1.294921875t-0.48974609375-1.78466796875t-0.19921875-1.9755859375t-0.06640625-1.88427734375t-0.1328125-1.5107421875z"/><path fill="#" d=""/></svg>
